<svg width="383" height="570" viewBox="0 0 383 570" fill="none" xmlns="http://www.w3.org/2000/svg">
<path fill-rule="evenodd" clip-rule="evenodd" d="M50.3588 153.53C64.0961 140.67 82.4905 135.625 99.3904 128.288C148.283 107.062 186.678 65.2492 232.252 36.7633C254.805 22.6663 281.662 11.6569 306.641 19.7795C324.025 25.4325 338.485 40.5447 344.209 59.0431C355.017 93.9673 335.461 130.173 324.49 165.038C303.554 231.571 314.175 305.384 337.233 371.105C342.276 385.476 347.932 399.758 350.287 414.905C355.76 450.11 342.199 486.838 319.219 512.644C296.238 538.449 264.814 554.208 232.467 562.527C192.82 572.724 150.864 572.41 111.355 561.617C91.3329 556.149 71.6454 547.849 55.4131 534.135C39.1799 520.422 26.6239 500.811 23.7031 478.864C19.3053 445.816 36.6104 414.037 39.662 380.814C41.0193 366.03 39.5272 351.133 37.9328 336.377C35.5678 314.483 32.9752 292.618 30.1575 270.785C27.5016 250.211 24.6379 229.418 26.5644 208.75C28.4902 188.082 35.7723 167.184 50.3588 153.53Z" fill="#056333"/>
<path d="M227.836 421.246C228.082 424.672 228.246 428.224 227.12 431.44C225.152 437.06 219.809 440.322 214.855 443.112C185.763 459.499 156.346 475.629 125.06 486.401C123.668 483.973 116.38 470.566 121.6 465.773C132.887 455.41 191.468 413.394 191.468 413.394C191.468 413.394 184.731 399.384 188.513 395.275C195.775 387.385 217.093 386.118 221.748 387.135C224.86 387.816 227.646 418.611 227.836 421.246Z" fill="white"/>
<path fill-rule="evenodd" clip-rule="evenodd" d="M137.899 461.7C137.899 461.7 138.95 464.173 142.259 464.173C145.569 464.173 151.78 450.497 155.136 443.231C158.528 435.888 158.328 435.803 164.311 420.303C170.293 404.801 158.472 381.558 158.472 381.558C158.472 381.558 139.139 378.794 135.852 381.558C130.701 385.889 133.989 413.546 133.989 413.546L137.899 461.7Z" fill="white"/>
<path d="M230.595 236.888C220.589 233.024 207.419 231.393 198.076 225.943C198.458 225.886 196.078 218.621 198.27 211.174C200.715 202.867 292.932 251.395 298.137 256.867C298.685 257.443 311.499 273.338 306.568 274.41C303.572 275.062 301.658 272.861 290.761 266.436C279.863 260.01 281.671 271.087 279.863 271.345C278.298 271.567 277.684 268.765 277.706 269.167C264.498 254.831 248.272 243.713 230.595 236.888Z" fill="white"/>
<path fill-rule="evenodd" clip-rule="evenodd" d="M280.841 90.7107C284.254 96.4999 285.049 100.137 285.917 106.925C280.793 111.396 221.877 151.557 179.185 169.934L179.98 169.869C187.198 169.249 192.545 167.888 194.01 165.984C201.305 195.086 201.14 226.299 193.539 255.311C192.469 259.392 196.908 262.406 200.628 263.962L200.82 264.041C227.191 274.79 252.229 289.299 275.067 307.067C261.957 313.816 249.948 323.02 239.747 334.137L238.663 335.33C235.051 339.324 231.435 343.458 226.744 345.769C221.584 348.311 214.614 347.903 211.208 343.028L217.394 355.298C203.775 363.903 188.426 369.336 172.709 371.123L171.882 371.213C170.196 371.391 168.353 371.486 166.96 370.451C165.962 369.709 165.37 368.509 164.841 367.328L144.034 320.461C140.242 311.898 136.538 303.173 135.104 293.832C131.992 273.571 139.073 252.786 136.208 232.483C133.14 210.749 118.462 193.281 109.74 173.39C106.382 165.731 101.433 154.549 105.586 142.389C109.74 130.23 156.846 131.712 193.539 121.335C240.92 107.937 280.234 89.683 280.841 90.7107Z" fill="white"/>
<path d="M147.99 132.506C163.473 132.506 176.025 116.233 176.025 96.1596C176.025 76.086 163.473 59.8132 147.99 59.8132C132.507 59.8132 119.955 76.086 119.955 96.1596C119.955 116.233 132.507 132.506 147.99 132.506Z" fill="white"/>
<path d="M186.154 209.765C185.22 214.104 180.325 216.869 176.44 215.302C175.923 215.093 175.691 214.462 175.522 213.899C173.297 206.493 171.828 198.827 171.149 191.081C171.026 189.678 170.932 188.236 171.306 186.885C172.12 183.945 175.367 182.076 178.1 182.974C179.962 183.586 181.397 185.247 182.273 187.114C183.149 188.979 183.54 191.057 183.922 193.105C184.553 196.487 185.183 199.869 185.813 203.25C186.215 205.4 186.615 207.629 186.154 209.765Z" fill="white"/>
<path d="M167.794 396.265C167.182 395.871 162.402 383.769 164.541 382.382C173.507 376.571 243.548 348.653 251.751 343.488C259.956 338.322 250.022 332.212 250.549 328.232C251.383 321.935 269.446 317.286 269.485 314.092C281.246 322.306 292.418 329.993 300.479 342.318C303.484 346.91 306.552 355.921 303.636 360.579C301.909 363.336 297.486 364.719 294.534 365.721C270.842 373.757 163.14 404.276 167.794 396.265Z" fill="white"/>
<path d="M125.902 492.085C123.917 509.849 119.657 527.318 113.281 543.849C112.118 546.861 110.74 550.029 108.141 551.717C105.543 553.407 101.407 552.689 100.469 549.588C93.1969 525.544 89.5951 500.226 89.8495 474.949C89.8599 473.923 89.8892 472.845 90.3744 471.961C91.1125 470.616 92.6633 470.109 94.0753 469.736C101.306 467.827 108.669 466.501 116.084 465.774C116.906 466.193 114.521 488.102 125.902 492.085Z" fill="white"/>
<path d="M312.374 166.318C333.83 166.318 351.223 147.654 351.223 124.632C351.223 101.609 333.83 82.9461 312.374 82.9461C290.919 82.9461 273.526 101.609 273.526 124.632C273.526 147.654 290.919 166.318 312.374 166.318Z" fill="#FFB61D"/>
<path fill-rule="evenodd" clip-rule="evenodd" d="M287.403 87.9977C288.52 93.2833 290.288 98.574 294.433 97.7624C299.82 96.7092 288.819 94.6232 361.648 87.3801C362.48 87.2976 361.019 85.5621 360.293 85.1171C356.466 82.7734 352.429 80.7861 348.279 79.1944C341.547 76.6107 286.765 84.9734 287.403 87.9977Z" fill="white"/>
<path fill-rule="evenodd" clip-rule="evenodd" d="M277.706 269.166C264.498 254.829 248.272 243.712 230.595 236.886C220.589 233.022 210.058 230.48 200.715 225.031C201.518 224.912 202.246 224.33 202.582 223.539C228.398 233.055 255.133 243.163 274.632 263.661C276.09 265.194 277.587 266.978 277.706 269.166Z" fill="#00160A"/>
<path fill-rule="evenodd" clip-rule="evenodd" d="M200.593 193.647C204.529 195.21 207.592 198.518 210.817 201.4C228.506 217.217 253.064 221.479 271.552 236.206C269.868 235.73 268.269 234.97 266.677 234.213C249.816 226.19 232.922 218.15 216.885 208.372C210.641 204.564 204.299 200.249 200.593 193.647Z" fill="#00160A"/>
<path fill-rule="evenodd" clip-rule="evenodd" d="M118.077 86.9198C116.347 79.5568 114.847 71.759 116.785 64.4555C118.723 57.153 125.231 50.6887 132.229 51.8124C136.97 52.5737 141.608 50.2704 145.966 48.1055L146.145 48.0164C151.815 45.2006 157.815 42.5424 164.059 42.7958C170.303 43.0492 176.839 47.0172 178.423 53.5026C179.104 56.2921 178.827 59.2347 178.546 62.1024L176.203 85.9764C175.269 95.4892 174.178 105.467 169.037 113.281C163.896 121.096 153.272 125.642 145.782 120.454C144.75 123.557 147.039 127.017 149.902 128.207C152.766 129.398 155.966 128.933 159.002 128.438C194.794 122.603 231.693 114.211 260.532 90.7277C259.971 86.6646 261.961 82.3336 265.305 80.3352C265.408 80.2739 265.513 80.211 265.622 80.1455C267.832 78.82 271.216 76.7911 273.526 77.3066C276.215 77.9064 278.107 80.7614 279.849 83.3893C280.284 84.0444 280.709 84.6858 281.134 85.2745C284.805 90.3508 286.025 96.9253 287.138 103.239C287.49 105.232 287.325 108.06 285.45 108.327C295.79 108.514 306.112 109.76 316.232 112.043L318.625 105.223C312.407 94.7057 295.145 95.6704 289.979 106.823C288.398 104.8 290.929 102.07 293.114 100.854C292.968 100.935 292.972 100.927 293.11 100.847C289.809 94.4896 287.377 87.6132 285.917 80.5062C287.241 83.5799 288.645 86.0929 290.049 88.6068C291.453 91.1207 292.857 93.6346 294.181 96.7083C304.74 91.467 315.81 90.3372 327.382 89.1572L327.727 89.1215C323.17 90.9514 320.386 96.7942 321.673 101.829C327.124 101.706 332.53 99.8586 337.042 96.5765C334.188 95.1149 332.001 92.2301 331.248 88.9344C336.664 91.8694 340.467 95.0817 338.401 97.6688C335.514 101.284 324.59 103.86 320.821 104.358L318.692 112.74C327.826 115.469 336.473 120.063 344.032 126.205C348.802 130.082 353.202 138.024 348.605 142.134L377.454 142.58C379.35 142.609 382.032 143.948 381.104 145.721L257.141 145.79C255.434 145.791 253.121 143.732 254.637 142.891C261.573 143.29 268.545 142.961 275.42 141.908C272.662 135.384 271.731 127.985 272.778 120.91C274.362 110.206 269.428 98.722 260.814 93.0621C223.019 121.96 174.685 128.531 128.521 133.641C122.916 134.262 116.915 135.052 112.685 139.045C108.271 143.21 106.814 150.116 107.591 156.367C108.368 162.619 111.059 168.388 113.833 173.949C115.452 177.197 117.122 180.451 118.797 183.715L118.798 183.717L118.799 183.717C129.236 204.055 139.898 224.828 140.219 247.783C140.303 253.742 139.672 259.687 139.041 265.627C138.253 273.049 137.466 280.463 138.076 287.882C139.105 300.386 144.027 312.087 148.879 323.508L165.957 363.716C166.614 365.262 167.329 366.885 168.634 367.849C170.805 369.452 173.739 368.685 176.26 367.859L204.745 358.525C207.539 357.61 210.856 356.037 211.086 352.911C211.214 351.189 210.296 349.602 209.415 348.157L201.552 335.261L219.478 342.598C220.742 343.116 222.074 343.642 223.414 343.442C225.066 343.196 226.39 341.905 227.613 340.688C240.567 327.782 254.719 316.261 269.792 306.353C246.244 287.392 219.493 273.025 191.234 264.165C197.613 232.721 197.784 199.844 191.732 168.326L151.826 181.94C151.635 187.183 152.871 192.307 154.103 197.414L154.104 197.415C154.429 198.763 154.754 200.11 155.052 201.458C156.481 207.91 157.258 214.955 154.652 220.968C152.046 226.981 144.95 231.138 139.451 228.11C145.994 230.411 152.977 224.189 154.718 217.041C156.458 209.893 154.489 202.376 152.531 195.293L148.402 180.355C192.651 166.262 234.424 143.274 270.909 112.939C248.986 135.842 221.327 151.191 194.01 165.981C201.305 195.084 201.14 226.296 193.539 255.308C192.45 259.46 197.063 262.507 200.82 264.038C227.191 274.787 252.229 289.296 275.067 307.065C261.957 313.814 249.948 323.018 239.747 334.136C239.229 334.7 238.713 335.271 238.197 335.843C234.738 339.674 231.234 343.555 226.744 345.767C221.584 348.31 214.614 347.901 211.208 343.026L217.394 355.296C203.535 364.052 187.887 369.523 171.882 371.211C170.196 371.389 168.353 371.484 166.96 370.449C165.895 369.658 165.293 368.345 164.736 367.09L144.703 321.969C140.686 312.919 136.623 303.72 135.104 293.83C133.531 283.586 134.766 273.208 136.001 262.828C137.208 252.675 138.417 242.519 137.001 232.481C134.985 218.204 127.961 205.769 120.905 193.278C117.22 186.753 113.526 180.213 110.533 173.388C107.174 165.73 104.647 157.233 105.923 148.881C107.199 140.529 113.237 132.551 121.097 131.841C119.116 121.266 119.899 110.111 123.334 99.9734C123.444 110.824 122.942 121.681 121.831 132.465L147.78 129.977L140.412 117.376C149.745 124.644 163.908 118.389 169.8 107.752C175.691 97.1158 175.526 83.9559 174.78 71.6084C167.191 76.5962 157.296 77.2845 149.171 73.3907C145.398 71.5837 140.805 74.0177 138.497 77.6954C136.19 81.3731 135.608 85.95 135.088 90.3483C133.291 89.6141 132.866 87.5502 132.424 85.4021C132.114 83.8938 131.796 82.3438 130.987 81.1834C128.102 77.042 121.234 81.5237 121.407 86.691C121.581 91.8583 125.688 95.7666 129.588 98.8037C123.93 101.115 119.556 93.2186 118.077 86.9198ZM275.582 81.596C274.842 80.6729 273.968 79.7218 272.841 79.5823C271.599 79.4292 270.472 80.302 269.488 81.1298L265.846 84.1924C264.601 85.2388 263.321 86.3303 262.581 87.8293C261.84 89.3283 261.787 91.3581 262.887 92.5772C266.653 96.7534 270.476 101.016 272.914 106.204C275.353 111.394 276.238 117.747 273.939 123.009C272.747 125.735 274.284 129.151 276.688 130.705C279.092 132.26 282.074 132.348 284.865 132.037C289.969 131.47 294.888 129.737 299.761 128.016L309.851 124.451C313.348 123.216 315.81 119.222 315.5 115.285C315.951 114.472 314.814 113.73 313.946 113.56C307.405 112.283 300.806 111.34 294.181 110.733C288.002 110.167 281.167 110.104 276.367 114.318C278.442 110.456 281.96 107.519 285.959 106.31C284.798 97.2341 281.149 88.5422 275.582 81.596ZM314.379 124.701C317.695 125.919 319.998 129.169 321.584 132.522C322.153 133.724 322.658 134.964 323.163 136.203L323.164 136.203C324.066 138.419 324.967 140.631 326.231 142.626C331.532 142.841 336.842 142.8 342.14 142.504C343.549 142.425 344.99 142.32 346.284 141.718C347.579 141.116 348.718 139.914 348.914 138.415C348.959 138.067 348.954 137.713 348.949 137.359C348.941 136.837 348.933 136.318 349.087 135.829C349.136 135.673 349.199 135.509 349.264 135.345C349.497 134.748 349.74 134.125 349.344 133.706C341.141 125.004 330.853 118.585 319.747 115.238C319.116 115.048 318.373 114.891 317.864 115.333C317.579 115.583 317.437 115.97 317.308 116.34L314.379 124.701ZM279.238 142.38L302.094 142.456C303.556 142.461 304.53 140.892 305.225 139.512L312.084 125.888C308.141 126.703 304.372 128.202 300.6 129.703C298.301 130.618 295.999 131.533 293.656 132.294C287.471 134.304 280.533 135.163 274.728 132.112C274.816 135.021 275.898 137.883 277.725 140.034C277.231 140.238 276.955 140.907 277.146 141.436C277.437 142.244 278.432 142.377 279.238 142.38ZM305.594 142.367C309.904 141.921 314.245 142.07 318.572 142.22L323.421 142.387C322.03 137.574 319.881 133.014 317.094 128.958C316.562 128.184 315.966 127.393 315.131 127.041C314.295 126.69 313.165 126.963 312.825 127.854C310.883 132.938 308.455 137.81 305.594 142.367ZM317.552 101.513C317.931 101.718 318.361 101.921 318.767 101.787C319.363 101.592 319.567 100.813 319.678 100.155L320.859 93.1344C320.924 92.7448 320.983 92.3109 320.78 91.9791C320.463 91.4559 319.719 91.5231 319.193 91.792C319.059 91.8609 318.927 91.9391 318.794 92.0174C318.407 92.2462 318.019 92.4759 317.585 92.4691C314.443 92.4155 311.292 93.171 308.47 94.6538C311.159 97.4042 314.231 99.7242 317.552 101.513ZM172.483 83.0269L167.4 85.5161C166.992 85.7161 166.513 85.916 166.112 85.6982C165.601 85.42 165.567 84.5905 165.898 84.0886C166.231 83.5875 166.793 83.3349 167.325 83.106L169.54 82.1566C170.11 81.9124 170.71 81.6632 171.319 81.7457C171.928 81.8291 172.529 82.3701 172.483 83.0269ZM154.751 88.446C155.509 88.3865 156.274 87.5775 155.988 86.8229L152.93 86.1338C150.36 85.5553 147.347 85.0933 145.399 86.9836C144.767 87.597 144.351 88.7608 144.988 89.3674C147.003 87.4345 150.034 86.8152 152.569 87.8174C152.715 87.8752 152.861 87.9382 153.007 88.0011C153.575 88.2461 154.149 88.4928 154.751 88.446ZM163.38 90.6273L162.794 89.5333C162.531 89.3844 162.168 89.4975 162.02 89.774C160.96 93.1812 161.454 97.1022 163.319 100.085C163.778 100.82 162.982 101.857 162.158 101.853C161.333 101.848 160.644 101.202 160.086 100.549C159.439 101.705 160.555 103.327 161.811 103.312C163.066 103.296 164.095 102.071 164.355 100.753C164.615 99.4341 164.27 98.0652 163.816 96.8087C163.702 96.4965 163.583 96.186 163.462 95.8746C163.099 94.9371 162.735 93.9979 162.569 93.0008C162.419 92.0965 162.575 90.9378 163.38 90.6273ZM142.003 105.466C141.647 103.673 141.564 101.277 143.142 100.576C144.316 100.053 145.677 100.982 146.27 102.188C146.721 103.106 146.865 104.142 147.008 105.176C147.054 105.501 147.099 105.826 147.154 106.146C147.381 107.487 147.872 108.91 148.973 109.589C152.34 111.663 156.222 112.766 160.104 112.75C156.345 114.523 152.06 112.435 148.425 110.385L140.147 105.717C139.609 105.414 138.98 104.79 139.309 104.243C140.258 104.499 141.171 104.913 142.003 105.466ZM144.477 104.271C144.663 105.158 144.713 106.077 144.624 106.98C145.321 107.095 145.983 107.448 146.488 107.975C146.309 105.98 145.834 104.015 145.086 102.178C144.675 101.17 143.076 101.557 142.709 102.584C142.341 103.613 142.799 104.756 143.32 105.704C143.347 105.023 143.852 104.397 144.477 104.271ZM150.019 275.481C163.578 273.511 177.508 271.411 189.427 264.202C189.943 263.89 190.505 263.142 190.047 262.74C176.835 269.617 162.321 273.597 147.655 274.363C147.667 275.416 149.048 275.623 150.019 275.481ZM162.435 421.975C163.191 420.215 163.783 418.374 164.199 416.488L153.714 413.978C153.927 413.047 155.111 412.936 155.997 413.063C158.891 413.478 161.741 414.247 164.474 415.35L166.423 406.633C166.838 406.391 167.351 406.351 167.794 406.525C166.457 414.539 164.332 422.401 161.463 429.937C161.046 431.032 160.372 432.301 159.27 432.292C159.192 431.595 159.297 430.876 159.571 430.239C156.93 430.403 153.987 430.463 152.006 428.584C154.604 428.223 157.261 428.345 159.821 428.944C160.862 427.228 161.662 425.344 162.185 423.375C159.146 423.218 156.132 422.495 153.319 421.25C153.607 420.353 154.78 420.363 155.647 420.546L162.435 421.975ZM105.092 547.701C99.465 524.972 96.0138 501.625 94.8095 478.143C94.7048 476.103 94.6906 473.829 95.9662 472.312C96.8463 495.754 99.9367 519.1 105.176 541.876C105.622 543.814 106.053 545.993 105.092 547.701ZM113.046 506.838C116.067 506.106 119.255 506.182 122.243 507.057L123.595 501.433C119.917 501.112 116.278 500.29 112.791 498.994C116.51 498.252 120.441 498.777 123.876 500.477C123.289 497.548 124.063 494.34 125.902 492.085C123.917 509.849 119.657 527.318 113.281 543.849C112.118 546.861 110.74 550.029 108.141 551.717C105.543 553.407 101.407 552.689 100.469 549.588C93.1969 525.544 89.5951 500.226 89.8495 474.949C89.8599 473.923 89.8892 472.845 90.3744 471.961C91.1125 470.616 92.6633 470.109 94.0753 469.736C101.306 467.827 108.669 466.501 116.084 465.774C116.906 466.193 115.827 467.4 114.932 467.58L90.9111 472.43C91.1649 498.206 94.823 523.939 101.741 548.623C102.011 549.584 102.326 550.608 103.077 551.205C105.012 552.748 107.505 550.276 108.732 548.05C114.345 537.856 118.31 526.62 120.396 514.994C117.846 516.202 114.759 516.011 112.356 514.495C115.08 513.719 117.985 513.68 120.727 514.385L122.091 509.142L113.046 506.838ZM251.751 337.73C251.758 336.96 251.443 336.229 251.067 335.573C250.096 333.88 248.661 332.497 246.987 331.643C246.258 332.854 247.251 334.363 248.07 335.506C248.888 336.649 249.443 338.585 248.273 339.294L228.717 351.155C228.07 351.547 227.335 352.402 227.835 352.992C232.329 352.387 236.344 349.786 240.205 347.245L248.815 341.578C250.193 340.671 251.738 339.466 251.751 337.73ZM177.696 272.956C178.22 272.796 177.611 271.982 177.069 271.921C176.527 271.861 175.769 271.326 176.181 270.944L178.463 271.041C179.459 271.487 179.13 273.281 178.15 273.768C177.171 274.255 176.026 273.876 175.007 273.492C174.883 274.845 173.513 275.902 172.278 275.595C171.044 275.29 170.243 273.697 170.683 272.423C171.399 271.762 172.471 271.582 173.34 271.978C173.425 272.375 173.044 272.497 172.632 272.63C172.393 272.706 172.143 272.786 171.967 272.925C171.251 273.485 172.289 274.787 173.119 274.455C173.95 274.124 174.28 273.075 174.506 272.157C175.449 272.789 176.59 273.075 177.696 272.956ZM154.269 91.564C155.639 91.3368 156.236 93.5947 155.493 94.8486C154.858 95.918 153.508 96.5909 152.452 96.0226C152.148 94.7967 152.401 93.4262 153.116 92.4164C153.407 92.008 153.797 91.6422 154.269 91.564ZM169.382 93.439C170.724 92.6452 170.239 90.4793 169.576 88.9973C167.72 89.2491 166.529 91.8243 167.465 93.5623C168.108 93.6882 168.81 93.7776 169.382 93.439ZM164.541 382.381L173.244 378.131C173.954 375.877 173.126 373.171 171.308 371.808C171.256 373.403 171.58 375.012 172.241 376.442C168.487 378.389 164.626 380.098 160.684 381.558C162.87 387.212 164.472 393.125 165.452 399.156C170.713 399.343 175.993 398.91 181.166 397.869L187.244 412.011L162.505 431.752C154.239 438.348 150.286 449.319 146.736 459.696C149.882 456.596 151.578 452.248 153.265 447.919C155.121 443.158 156.968 438.421 160.726 435.396L185.904 415.128C186.815 414.394 187.785 413.568 188.061 412.383C188.32 411.271 187.901 410.121 187.49 409.064L182.933 397.336C196.119 395.18 209.126 391.762 221.748 387.135L225.04 420.178C225.469 424.479 225.82 429.161 223.645 432.802C222.081 435.419 219.459 437.048 216.928 438.56C187.51 456.134 156.828 471.269 125.245 483.787L119.374 467.45C125.003 462.979 130.851 458.826 136.888 455.015C136.847 457.302 136.835 459.718 137.899 461.699C138.962 463.681 141.513 464.934 143.299 463.686C145.293 462.294 145.021 459.132 144.552 456.629C140.096 432.79 139.382 408.352 138.683 384.049C136.911 409.591 138.651 435.412 143.831 460.415C144.182 462.109 141.739 463.124 140.426 462.11C139.112 461.096 138.78 459.184 138.562 457.463C135.612 434.214 134.295 410.726 134.624 387.265C134.646 385.681 134.781 383.863 135.967 382.918C136.748 382.295 137.785 382.231 138.757 382.19L159.295 381.327C152.213 380.224 145.005 380.055 137.885 380.826C136.729 380.951 135.497 381.138 134.634 381.971C133.506 383.06 133.371 384.877 133.325 386.504C132.736 407.115 133.795 427.78 136.487 448.196C136.976 451.912 134.34 455.316 131.378 457.312C130.133 458.151 128.804 458.842 127.477 459.531C125.647 460.482 123.818 461.431 122.218 462.768C119.457 465.071 117.472 469.184 118.968 472.576L125.06 486.401C156.346 475.629 185.763 459.499 214.855 443.113C219.809 440.323 225.152 437.061 227.12 431.44C228.246 428.224 228.082 424.673 227.836 421.246C227.001 409.626 225.401 398.069 223.053 386.689C247.009 379.613 270.842 372.054 294.534 364.019C297.486 363.018 300.66 361.835 302.387 359.077C305.304 354.42 302.591 348.171 299.587 343.579C291.524 331.253 281.246 320.604 269.485 312.39C269.446 315.585 272.163 317.911 274.542 319.832C282.862 326.553 290.207 334.661 296.231 343.776C298.789 347.648 301.066 353.144 298.236 356.791C296.967 358.428 294.979 359.166 293.093 359.828C251.596 374.372 209.473 386.855 166.902 397.224L164.541 382.381ZM355.438 270.394C356.364 272.323 357.806 274.666 359.781 274.207C355.6 264.965 349.699 256.624 342.526 249.818L363.129 229.889L361.241 264.069C361.106 266.513 360.993 269.084 361.998 271.282C363.924 270.599 364.262 267.881 364.276 265.705C364.526 226.359 370.772 187.064 382.69 149.854C381.445 147.962 378.952 147.747 376.793 147.736C366.959 147.686 357.13 148.166 347.302 148.648C336.325 149.186 325.348 149.722 314.364 149.519C309.117 149.422 303.857 149.157 298.597 148.891C284.478 148.179 270.357 147.467 256.47 150.006C256.26 150.045 256.043 150.087 255.868 150.217C255.335 150.611 255.493 151.483 255.708 152.137C264.281 178.182 270.192 205.234 273.3 232.654C273.751 236.629 277.026 239.436 280.042 241.792L292.036 251.163C293.741 252.495 296.675 253.517 297.486 251.429C298.063 249.941 299.812 249.305 301.287 249.609C302.763 249.913 304.013 250.931 305.164 251.966C311.888 258.018 317.275 265.768 320.763 274.409L340.514 251.437C346.734 256.444 351.878 262.978 355.438 270.394ZM310.631 167.035C320.867 167.266 331.14 163.416 339.016 156.396C340.198 155.343 341.333 154.215 342.27 152.91C343.088 151.77 344.496 150.358 345.495 151.317C344.537 155.54 344.388 159.972 345.06 164.258C345.571 167.509 342.874 170.216 340.447 172.236L333.099 178.354C331.265 179.881 329.381 181.436 327.169 182.194C324.958 182.951 322.316 182.76 320.608 181.073L307.86 168.492C306.897 167.543 305.909 166.555 305.38 165.273C304.952 164.235 304.857 163.079 304.787 161.946C304.567 158.391 304.543 154.822 304.715 151.263C308.618 152.052 312.625 151.926 316.595 151.797L326.837 151.465C327.528 151.442 328.233 151.421 328.897 151.63C329.512 151.822 330.059 152.201 330.596 152.576L336.746 156.858C335.145 156.734 333.914 157.936 332.67 159.151C332.123 159.686 331.571 160.224 330.985 160.652C329.774 161.535 328.331 161.963 326.909 162.34C324.646 162.938 322.361 163.444 320.06 163.852C315.671 164.632 311.144 165.057 306.796 164.049C306.332 165.948 308.802 166.994 310.631 167.035ZM296.6 208.896C297.268 208.344 297.98 207.77 298.818 207.661C299.669 207.551 300.502 207.941 301.268 208.356C309.454 212.791 315.358 220.803 320.989 228.569C315.159 231.952 309.885 236.433 305.477 241.746L305.372 241.873C304.658 242.736 303.923 243.623 302.943 244.087C301.914 244.574 300.525 244.425 299.905 243.417C294.817 235.131 288.405 227.783 281.034 221.788L296.6 208.896ZM302.33 204.511C308.334 199.457 314.539 194.677 320.922 190.192C321.575 189.733 322.265 189.263 323.042 189.19C323.889 189.11 324.707 189.512 325.461 189.934C332.637 193.951 338.399 200.799 341.392 208.869C334.805 213.111 328.893 218.559 323.992 224.907C323.436 225.629 322.363 226.379 321.834 225.634C316.224 217.724 309.649 210.603 302.33 204.511ZM350.293 216.733C354.101 220.375 358.207 223.661 362.546 226.54C354.279 232.256 346.954 239.536 341.009 247.942C336.781 240.967 331.601 234.658 325.686 229.278C325.393 229.012 325.078 228.71 325.026 228.302C324.967 227.846 325.256 227.431 325.531 227.078C331.258 219.73 338.317 213.58 346.195 209.074C345.968 212.121 348.166 214.7 350.293 216.733ZM277.699 151.357C279.278 151.294 281.076 151.346 282.121 152.617C287.624 159.317 295.155 164.066 303.286 165.968C297.84 171.815 291.669 176.885 284.987 181.001C283.904 181.668 282.588 180.782 281.629 179.923C272.927 172.119 265.18 163.09 258.652 153.139C264.969 152.212 271.328 151.617 277.699 151.357ZM305.048 248.347C308.678 241.365 314.623 235.803 321.563 232.894C323.887 231.92 326.319 233.877 328.086 235.767C331.911 239.858 335.414 244.296 338.545 249.018C338.72 249.281 338.899 249.562 338.916 249.885C338.954 250.596 338.239 251.042 337.649 251.368C334.14 253.306 331.784 256.748 329.411 260.216V260.217C327.581 262.891 325.74 265.581 323.352 267.607C323.114 267.809 322.854 268.011 322.552 268.042C322.044 268.093 321.621 267.656 321.276 267.255L305.048 248.347ZM346.777 171.068C352.348 177.513 358.849 183.031 365.978 187.363C358.751 192.312 352.13 198.281 346.341 205.066C345.507 206.043 344.069 204.915 343.306 203.873C338.319 197.056 332.352 191.067 325.68 186.183C333.291 183.051 340.042 177.555 344.903 170.534C345.346 169.894 346.271 170.483 346.777 171.068ZM322.98 186.373C314.53 189.732 306.914 195.475 301.105 202.867C296.653 195.679 290.349 190.084 284.138 184.6C291.614 180.526 298.559 175.334 304.709 169.22C310.383 175.424 316.496 181.164 322.98 186.373ZM365.993 155.126C368.597 153.168 371.332 151.152 374.482 150.69C376.177 150.442 377.897 150.662 379.595 150.893C375.543 162.613 372.256 174.637 369.768 186.848C362.276 181.955 355.286 176.181 348.962 169.662C348.781 169.476 348.593 169.276 348.533 169.014C348.407 168.459 348.9 167.983 349.337 167.655L365.993 155.126ZM280.242 219.689C278.96 217.716 277.23 216.083 275.242 214.971C275.201 214.947 275.159 214.924 275.116 214.901L275.111 214.898L275.109 214.897C274.671 214.654 274.222 214.406 273.928 213.986C273.675 213.627 273.563 213.181 273.457 212.746C272.546 209.026 271.628 205.166 272.236 201.376C273.041 196.359 276.368 192.295 279.641 188.609C280.043 188.156 280.482 187.681 281.053 187.545C281.658 187.399 282.278 187.667 282.84 187.952C289.587 191.368 294.597 197.749 298.867 204.313C291.685 207.845 285.265 213.146 280.242 219.689ZM348.272 209.456C348.673 206.176 350.761 203.437 352.961 201.119C357.561 196.27 363.042 192.385 369.005 189.747L363.914 224.399C357.76 220.734 352.376 215.591 348.272 209.456ZM278.494 221.187C278.62 221.758 278.171 222.272 277.762 222.66L275.784 224.539C275.861 225.052 276.551 225.125 276.985 224.894C277.116 224.826 277.243 224.74 277.369 224.655C277.663 224.459 277.956 224.262 278.294 224.265C278.609 224.267 278.897 224.446 279.166 224.622C286.981 229.731 293.61 236.913 298.296 245.348C298.59 245.879 298.887 246.449 298.879 247.066C298.87 247.955 298.247 248.682 297.664 249.314C296.348 250.74 294.195 252.215 292.832 250.842C288.409 246.389 283.47 242.526 278.165 239.369C277.016 238.685 276.712 237.091 276.528 235.695L274.094 217.199C275.523 218.115 276.85 219.215 278.036 220.468C278.232 220.675 278.432 220.9 278.494 221.187ZM263.564 164.599C269.261 171.082 275.158 177.362 281.243 183.426C277.139 187.635 272.906 192.051 270.934 197.764L262.574 164.214C262.936 164.167 263.315 164.314 263.564 164.599ZM347.056 161.691C346.788 158.082 346.585 154.178 348.402 151.127L368.132 151.66L347.465 167.208L347.056 161.691ZM302.736 164.207L298.86 162.373L298.952 161.248C298.371 161.807 297.7 161.294 296.986 160.749C296.349 160.262 295.679 159.749 295.007 159.948C294.847 159.996 294.667 160.071 294.485 160.145V160.146C293.912 160.383 293.319 160.629 293.252 160.074C293.225 159.849 293.37 159.646 293.506 159.473L298.408 153.253C298.985 152.521 299.61 151.754 300.464 151.474C301.318 151.194 302.444 151.655 302.577 152.603C303.117 156.44 303.17 160.355 302.736 164.207ZM295.409 151.861C295.752 151.449 296.468 151.523 296.73 151.998C295.829 154.475 294.21 156.646 292.156 158.134C291.566 158.561 290.517 158.758 290.36 158.014C290.174 157.128 289.211 156.942 288.317 156.769C288.128 156.732 287.942 156.697 287.767 156.655C285.803 156.185 284.422 153.828 284.879 151.726C286.958 150.636 289.369 150.641 291.682 150.668C293.02 150.684 294.529 150.78 295.409 151.861ZM340.567 152.104C339.836 152.608 339.323 153.463 339.199 154.386C336.746 154.41 334.301 153.272 332.641 151.334C334.362 150.976 336.202 151.329 337.702 152.303C338.363 151.383 339.801 151.283 340.567 152.104ZM361.702 87.8225C359.598 83.8683 347.92 77.823 339.439 75.9633C321.555 72.0406 302.712 73.2733 285.404 79.4989C299.68 72.2354 316.862 71.2826 333.171 73.0181C347.785 74.5732 367.898 88.036 362.942 89.2321C358.792 90.2351 341.736 89.2321 332.641 86.879C337.494 85.3477 347.597 86.6068 354.519 87.4694C358.904 88.0164 362.011 88.4035 361.702 87.8225Z" fill="#00160A"/>
<path fill-rule="evenodd" clip-rule="evenodd" d="M107.483 499.813C108.039 501.081 108.273 502.51 108.153 503.906C106.874 502.886 105.699 501.717 104.656 500.423C103.641 501.334 102.393 501.942 101.086 502.165C100.954 500.724 101.756 499.238 102.987 498.645C101.411 498.074 99.484 496.88 99.8534 495.141C101.372 495.158 102.888 495.451 104.318 496.001C104.304 494.488 105.024 492.989 106.182 492.124C106.515 493.727 106.847 495.332 107.18 496.935C108.054 497.339 108.973 497.631 109.91 497.806C109.403 498.793 108.502 499.539 107.483 499.813Z" fill="#FFB61D"/>
<path fill-rule="evenodd" clip-rule="evenodd" d="M148.801 415.597C147.392 415.185 146.119 414.257 145.242 413.004C144.31 413.755 143.152 414.178 141.987 414.191C142.328 413.224 142.851 412.331 143.515 411.583C142.49 410.604 141.547 409.527 140.7 408.369C142.115 407.261 144.506 409.84 145.658 408.423C146.013 407.986 146.028 407.349 146.216 406.804C146.404 406.26 147.001 405.753 147.448 406.081C147.988 407.11 148.212 408.326 148.078 409.498C148.864 409.766 149.65 410.033 150.437 410.301C150.408 411.283 149.362 412.064 148.493 411.751C148.596 413.033 148.699 414.315 148.801 415.597Z" fill="#FFB61D"/>
<path fill-rule="evenodd" clip-rule="evenodd" d="M289.478 255.255C290.265 254.518 291.485 255.096 292.346 255.732C298.154 260.013 302.599 266.056 306.949 272.004C307.376 272.588 307.828 273.265 307.724 273.999C307.62 274.734 306.585 275.218 306.227 274.582C302.457 267.871 297.419 261.984 291.508 257.384C290.734 256.782 289.916 256.166 289.478 255.255Z" fill="#00160A"/>
<path fill-rule="evenodd" clip-rule="evenodd" d="M144.477 104.271C144.663 105.158 144.713 106.077 144.624 106.98C145.321 107.094 145.983 107.448 146.488 107.975C146.309 105.98 145.834 104.015 145.086 102.178C144.675 101.169 143.076 101.557 142.709 102.584C142.341 103.612 142.799 104.756 143.32 105.704C143.347 105.022 143.852 104.397 144.477 104.271Z" fill="#FFB61D"/>
<path fill-rule="evenodd" clip-rule="evenodd" d="M302.12 272.208C296.84 268.993 291.328 266.22 285.647 263.922C284.398 263.417 282.844 264.039 282.208 265.299C281.417 264.68 281.884 263.19 282.785 262.783C283.686 262.378 284.716 262.697 285.642 263.033C290.583 264.824 295.398 267.017 300.031 269.588C301.041 270.149 302.188 270.99 302.12 272.208Z" fill="#00160A"/>
<path fill-rule="evenodd" clip-rule="evenodd" d="M278.847 254.255C280.532 259.276 281.164 264.701 280.685 270.013C280.632 270.596 280.409 271.34 279.863 271.343C279.232 271.348 279.079 270.407 279.122 269.73C279.48 264.162 278.797 258.518 277.126 253.231C277.572 252.491 278.568 253.425 278.847 254.255Z" fill="#00160A"/>
<path fill-rule="evenodd" clip-rule="evenodd" d="M304.93 266.435C302.212 263.021 299.495 259.607 296.777 256.193C296.451 255.784 296.113 255.192 296.408 254.757C299.988 257.931 302.916 261.945 304.93 266.435Z" fill="#00160A"/>
<path fill-rule="evenodd" clip-rule="evenodd" d="M0.602495 270.127C0.164061 269.841 -0.0785341 269.247 0.0229479 268.708C0.308366 268.39 0.846696 268.398 1.12339 268.726C1.38741 269.251 1.13845 269.996 0.623109 270.222L0.602495 270.127Z" fill="#00160A"/>
<path fill-rule="evenodd" clip-rule="evenodd" d="M290.792 1.12798C290.47 1.18047 290.147 1.23296 289.824 1.28545C289.648 0.970597 289.58 0.587343 289.636 0.224677C289.915 0.0296901 290.265 -0.0433866 290.593 0.0251821C290.775 0.321321 290.84 0.698705 290.768 1.04546L290.792 1.12798Z" fill="#00160A"/>
<path fill-rule="evenodd" clip-rule="evenodd" d="M186.154 209.765C185.22 214.104 180.325 216.869 176.44 215.302C175.923 215.093 175.691 214.462 175.522 213.899C173.297 206.493 171.828 198.827 171.149 191.081C171.026 189.678 170.932 188.236 171.306 186.885C172.12 183.945 175.367 182.076 178.1 182.974C179.962 183.586 181.397 185.247 182.273 187.114C183.149 188.979 183.54 191.057 183.922 193.105C184.553 196.487 185.183 199.869 185.813 203.25C186.215 205.4 186.615 207.629 186.154 209.765ZM177.405 213.853C178.014 214.419 178.905 214.5 179.699 214.347C183.102 213.691 184.97 209.487 184.859 205.779C184.748 202.07 183.262 198.587 182.507 194.967C181.981 192.445 181.781 189.763 180.526 187.558C179.271 185.353 176.449 183.863 174.412 185.239C172.355 186.63 172.375 189.805 172.702 192.39C173.535 198.956 174.789 205.46 176.454 211.843C176.645 212.577 176.867 213.353 177.405 213.853Z" fill="#FFB61D"/>
<path fill-rule="evenodd" clip-rule="evenodd" d="M182.011 210.145C181.293 210.64 180.284 210.309 179.698 209.643C179.112 208.976 178.85 208.063 178.619 207.181C177.243 201.953 176.29 196.597 175.772 191.194C175.701 190.452 175.643 189.675 175.911 188.988C176.18 188.301 176.886 187.751 177.554 187.954C178.205 188.153 178.523 188.923 178.75 189.608C180.624 195.267 181.958 201.132 182.722 207.082C182.864 208.186 182.885 209.542 182.011 210.145ZM176.885 188.937C177.016 195.438 178.147 201.915 180.218 208.026C180.455 208.725 181.116 209.569 181.67 209.124C181.274 202.152 179.641 195.264 176.885 188.937Z" fill="#FFB61D"/>
<path fill-rule="evenodd" clip-rule="evenodd" d="M318.625 105.223L316.232 112.044C315.694 111.922 315.059 111.773 314.345 111.606C307.885 110.093 294.838 107.038 285.96 108.379C277.376 109.676 273.515 115.929 272.778 120.91C271.731 127.985 272.662 135.384 275.42 141.908C274.386 142.066 275.539 142.186 278.213 142.273C278.545 142.356 278.907 142.379 279.238 142.38L284.361 142.397C294.765 142.529 311.997 142.496 326.1 142.415C326.143 142.486 326.187 142.557 326.231 142.626C331.533 142.842 336.842 142.801 342.141 142.504C342.932 142.46 343.734 142.407 344.515 142.262C348.627 142.211 350.456 142.163 348.605 142.134C353.202 138.024 348.802 130.082 344.032 126.205C336.473 120.063 327.826 115.469 318.692 112.74L320.821 104.358C327.287 103.505 333.586 101.226 339.213 97.7037C340.867 101.75 344.026 95.8584 331.248 88.9344C332.001 92.2301 334.188 95.1149 337.042 96.5765C332.53 99.8586 327.124 101.706 321.673 101.829C320.386 96.7942 323.17 90.9514 327.727 89.1215C319.991 89.1215 303.234 94.0923 294.564 99.0265C289.892 101.685 289.426 106.115 289.979 106.823C295.145 95.6704 312.407 94.7057 318.625 105.223ZM344.515 142.262C345.123 142.15 345.717 141.982 346.284 141.719C347.579 141.116 348.718 139.914 348.914 138.415C348.959 138.067 348.954 137.713 348.949 137.359C348.941 136.837 348.933 136.318 349.087 135.829C349.136 135.673 349.2 135.51 349.264 135.345C349.497 134.748 349.74 134.125 349.344 133.707C341.141 125.004 330.853 118.585 319.747 115.238C319.117 115.048 318.373 114.891 317.864 115.333C317.579 115.583 317.438 115.97 317.308 116.34L314.379 124.701C317.695 125.919 319.999 129.169 321.584 132.522C322.154 133.724 322.659 134.965 323.164 136.203C324.034 138.341 324.905 140.477 326.1 142.415C333.639 142.373 340.284 142.316 344.515 142.262ZM284.361 142.397L302.094 142.456C303.556 142.461 304.53 140.892 305.225 139.512L312.084 125.888C308.141 126.703 304.372 128.202 300.6 129.703C298.301 130.618 295.999 131.533 293.656 132.294C287.471 134.304 280.533 135.163 274.728 132.112C274.816 135.021 275.898 137.884 277.725 140.034C277.231 140.238 276.955 140.907 277.146 141.437C277.318 141.913 277.734 142.154 278.213 142.273C279.783 142.324 281.877 142.365 284.361 142.397ZM276.688 130.706C274.284 129.151 272.747 125.735 273.939 123.009C278.875 111.713 282.597 109.672 294.181 110.733C300.806 111.34 307.405 112.283 313.946 113.56C314.814 113.73 315.951 114.472 315.5 115.285C315.81 119.222 313.348 123.216 309.851 124.452L299.761 128.016C294.888 129.738 289.969 131.47 284.865 132.037C282.074 132.348 279.092 132.26 276.688 130.706ZM305.594 142.367C309.904 141.921 314.245 142.07 318.572 142.22L323.421 142.387C322.03 137.574 319.881 133.014 317.094 128.958C316.562 128.184 315.966 127.393 315.131 127.042C314.295 126.69 313.165 126.964 312.825 127.854C310.883 132.938 308.455 137.81 305.594 142.367ZM318.767 101.787C318.361 101.921 317.931 101.718 317.552 101.514C314.231 99.725 311.159 97.4042 308.47 94.6538C311.292 93.171 314.443 92.4164 317.585 92.4691C318.019 92.4759 318.407 92.2462 318.794 92.0174C318.927 91.9391 319.059 91.8609 319.193 91.7919C319.719 91.5231 320.463 91.4559 320.78 91.98C320.983 92.3109 320.924 92.7448 320.859 93.1344L319.678 100.155C319.567 100.814 319.363 101.592 318.767 101.787Z" fill="white"/>
</svg>
